<?xml version="1.0" encoding="UTF-8" standalone="no"?><svg xmlns="http://www.w3.org/2000/svg" xmlns:xlink="http://www.w3.org/1999/xlink" contentScriptType="application/ecmascript" contentStyleType="text/css" height="886px" preserveAspectRatio="none" style="width:1125px;height:886px;" version="1.1" viewBox="0 0 1125 886" width="1125px" zoomAndPan="magnify"><defs><filter height="300%" id="feetfneja081x" width="300%" x="-1" y="-1"><feGaussianBlur result="blurOut" stdDeviation="2.0"/><feColorMatrix in="blurOut" result="blurOut2" type="matrix" values="0 0 0 0 0 0 0 0 0 0 0 0 0 0 0 0 0 0 .4 0"/><feOffset dx="4.0" dy="4.0" in="blurOut2" result="blurOut3"/><feBlend in="SourceGraphic" in2="blurOut3" mode="normal"/></filter></defs><g><rect fill="#FFFFFF" filter="url(#feetfneja081x)" height="759.6563" style="stroke: #A80036; stroke-width: 1.0;" width="10" x="136" y="73.4297"/><rect fill="#FFFFFF" filter="url(#feetfneja081x)" height="721.5234" style="stroke: #A80036; stroke-width: 1.0;" width="10" x="286" y="111.5625"/><rect fill="#FFFFFF" filter="url(#feetfneja081x)" height="707.5234" style="stroke: #A80036; stroke-width: 1.0;" width="10" x="435" y="125.5625"/><rect fill="#FFFFFF" filter="url(#feetfneja081x)" height="664.3906" style="stroke: #A80036; stroke-width: 1.0;" width="10" x="560" y="168.6953"/><rect fill="#FFFFFF" filter="url(#feetfneja081x)" height="605.2578" style="stroke: #A80036; stroke-width: 1.0;" width="10" x="641.5" y="211.8281"/><rect fill="#FFFFFF" filter="url(#feetfneja081x)" height="577.2578" style="stroke: #A80036; stroke-width: 1.0;" width="10" x="715" y="225.8281"/><rect fill="#FFFFFF" filter="url(#feetfneja081x)" height="549.2578" style="stroke: #A80036; stroke-width: 1.0;" width="10" x="790.5" y="239.8281"/><rect fill="#FFFFFF" filter="url(#feetfneja081x)" height="579.2578" style="stroke: #A80036; stroke-width: 1.0;" width="10" x="927.5" y="253.8281"/><rect fill="#FFFFFF" filter="url(#feetfneja081x)" height="536.125" style="stroke: #A80036; stroke-width: 1.0;" width="10" x="1059" y="296.9609"/><rect fill="#FFFFFF" filter="url(#feetfneja081x)" height="216.5313" style="stroke: #000000; stroke-width: 2.0;" width="1020" x="84" y="88.4297"/><rect fill="#FFFFFF" filter="url(#feetfneja081x)" height="432.9922" style="stroke: #000000; stroke-width: 2.0;" width="1040" x="74" y="318.9609"/><rect fill="#FFFFFF" filter="url(#feetfneja081x)" height="162.7969" style="stroke: #000000; stroke-width: 2.0;" width="1020" x="84" y="343.0938"/><rect fill="#FFFFFF" filter="url(#feetfneja081x)" height="225.0625" style="stroke: #000000; stroke-width: 2.0;" width="1020" x="84" y="519.8906"/><rect fill="#FFFFFF" filter="url(#feetfneja081x)" height="77.3984" style="stroke: #000000; stroke-width: 2.0;" width="354" x="680" y="660.5547"/><rect fill="#FFFFFF" height="31.1328" style="stroke: none; stroke-width: 1.0;" width="354" x="680" y="706.8203"/><rect fill="#FFFFFF" filter="url(#feetfneja081x)" height="59.1328" style="stroke: #000000; stroke-width: 2.0;" width="757" x="84" y="765.9531"/><line style="stroke: #A80036; stroke-width: 1.0; stroke-dasharray: 5.0,5.0;" x1="46" x2="46" y1="42.2969" y2="842.0859"/><line style="stroke: #A80036; stroke-width: 1.0; stroke-dasharray: 5.0,5.0;" x1="141" x2="141" y1="42.2969" y2="842.0859"/><line style="stroke: #A80036; stroke-width: 1.0; stroke-dasharray: 5.0,5.0;" x1="291" x2="291" y1="42.2969" y2="842.0859"/><line style="stroke: #A80036; stroke-width: 1.0; stroke-dasharray: 5.0,5.0;" x1="440" x2="440" y1="42.2969" y2="842.0859"/><line style="stroke: #A80036; stroke-width: 1.0; stroke-dasharray: 5.0,5.0;" x1="565" x2="565" y1="42.2969" y2="842.0859"/><line style="stroke: #A80036; stroke-width: 1.0; stroke-dasharray: 5.0,5.0;" x1="646" x2="646" y1="42.2969" y2="842.0859"/><line style="stroke: #A80036; stroke-width: 1.0; stroke-dasharray: 5.0,5.0;" x1="720" x2="720" y1="42.2969" y2="842.0859"/><line style="stroke: #A80036; stroke-width: 1.0; stroke-dasharray: 5.0,5.0;" x1="795" x2="795" y1="42.2969" y2="842.0859"/><line style="stroke: #A80036; stroke-width: 1.0; stroke-dasharray: 5.0,5.0;" x1="932" x2="932" y1="42.2969" y2="842.0859"/><line style="stroke: #A80036; stroke-width: 1.0; stroke-dasharray: 5.0,5.0;" x1="1064" x2="1064" y1="42.2969" y2="842.0859"/><rect fill="#FEFECE" filter="url(#feetfneja081x)" height="30.2969" style="stroke: #A80036; stroke-width: 1.5;" width="72" x="8" y="7"/><text fill="#000000" font-family="sans-serif" font-size="14" lengthAdjust="spacingAndGlyphs" textLength="58" x="15" y="26.9951">Program</text><rect fill="#FEFECE" filter="url(#feetfneja081x)" height="30.2969" style="stroke: #A80036; stroke-width: 1.5;" width="72" x="8" y="841.0859"/><text fill="#000000" font-family="sans-serif" font-size="14" lengthAdjust="spacingAndGlyphs" textLength="58" x="15" y="861.0811">Program</text><rect fill="#FEFECE" filter="url(#feetfneja081x)" height="30.2969" style="stroke: #A80036; stroke-width: 1.5;" width="90" x="94" y="7"/><text fill="#000000" font-family="sans-serif" font-size="14" lengthAdjust="spacingAndGlyphs" textLength="76" x="101" y="26.9951">PolyEngine</text><rect fill="#FEFECE" filter="url(#feetfneja081x)" height="30.2969" style="stroke: #A80036; stroke-width: 1.5;" width="90" x="94" y="841.0859"/><text fill="#000000" font-family="sans-serif" font-size="14" lengthAdjust="spacingAndGlyphs" textLength="76" x="101" y="861.0811">PolyEngine</text><rect fill="#FEFECE" filter="url(#feetfneja081x)" height="30.2969" style="stroke: #A80036; stroke-width: 1.5;" width="120" x="229" y="7"/><text fill="#000000" font-family="sans-serif" font-size="14" lengthAdjust="spacingAndGlyphs" textLength="106" x="236" y="26.9951">EntityCollection</text><rect fill="#FEFECE" filter="url(#feetfneja081x)" height="30.2969" style="stroke: #A80036; stroke-width: 1.5;" width="120" x="229" y="841.0859"/><text fill="#000000" font-family="sans-serif" font-size="14" lengthAdjust="spacingAndGlyphs" textLength="106" x="236" y="861.0811">EntityCollection</text><rect fill="#FEFECE" filter="url(#feetfneja081x)" height="30.2969" style="stroke: #A80036; stroke-width: 1.5;" width="146" x="367" y="3"/><rect fill="#FEFECE" filter="url(#feetfneja081x)" height="30.2969" style="stroke: #A80036; stroke-width: 1.5;" width="146" x="363" y="7"/><text fill="#000000" font-family="sans-serif" font-size="14" lengthAdjust="spacingAndGlyphs" textLength="132" x="370" y="26.9951">UpdateComponent</text><rect fill="#FEFECE" filter="url(#feetfneja081x)" height="30.2969" style="stroke: #A80036; stroke-width: 1.5;" width="146" x="367" y="841.0859"/><rect fill="#FEFECE" filter="url(#feetfneja081x)" height="30.2969" style="stroke: #A80036; stroke-width: 1.5;" width="146" x="363" y="845.0859"/><text fill="#000000" font-family="sans-serif" font-size="14" lengthAdjust="spacingAndGlyphs" textLength="132" x="370" y="865.0811">UpdateComponent</text><rect fill="#FEFECE" filter="url(#feetfneja081x)" height="30.2969" style="stroke: #A80036; stroke-width: 1.5;" width="68" x="531" y="3"/><rect fill="#FEFECE" filter="url(#feetfneja081x)" height="30.2969" style="stroke: #A80036; stroke-width: 1.5;" width="68" x="527" y="7"/><text fill="#000000" font-family="sans-serif" font-size="14" lengthAdjust="spacingAndGlyphs" textLength="54" x="534" y="26.9951">ICollider</text><rect fill="#FEFECE" filter="url(#feetfneja081x)" height="30.2969" style="stroke: #A80036; stroke-width: 1.5;" width="68" x="531" y="841.0859"/><rect fill="#FEFECE" filter="url(#feetfneja081x)" height="30.2969" style="stroke: #A80036; stroke-width: 1.5;" width="68" x="527" y="845.0859"/><text fill="#000000" font-family="sans-serif" font-size="14" lengthAdjust="spacingAndGlyphs" textLength="54" x="534" y="865.0811">ICollider</text><rect fill="#FEFECE" filter="url(#feetfneja081x)" height="30.2969" style="stroke: #A80036; stroke-width: 1.5;" width="63" x="613" y="7"/><text fill="#000000" font-family="sans-serif" font-size="14" lengthAdjust="spacingAndGlyphs" textLength="49" x="620" y="26.9951">Shader</text><rect fill="#FEFECE" filter="url(#feetfneja081x)" height="30.2969" style="stroke: #A80036; stroke-width: 1.5;" width="63" x="613" y="841.0859"/><text fill="#000000" font-family="sans-serif" font-size="14" lengthAdjust="spacingAndGlyphs" textLength="49" x="620" y="861.0811">Shader</text><rect fill="#FEFECE" filter="url(#feetfneja081x)" height="30.2969" style="stroke: #A80036; stroke-width: 1.5;" width="56" x="690" y="7"/><text fill="#000000" font-family="sans-serif" font-size="14" lengthAdjust="spacingAndGlyphs" textLength="42" x="697" y="26.9951">Model</text><rect fill="#FEFECE" filter="url(#feetfneja081x)" height="30.2969" style="stroke: #A80036; stroke-width: 1.5;" width="56" x="690" y="841.0859"/><text fill="#000000" font-family="sans-serif" font-size="14" lengthAdjust="spacingAndGlyphs" textLength="42" x="697" y="861.0811">Model</text><rect fill="#FEFECE" filter="url(#feetfneja081x)" height="30.2969" style="stroke: #A80036; stroke-width: 1.5;" width="67" x="760" y="7"/><text fill="#000000" font-family="sans-serif" font-size="14" lengthAdjust="spacingAndGlyphs" textLength="53" x="767" y="26.9951">Texture</text><rect fill="#FEFECE" filter="url(#feetfneja081x)" height="30.2969" style="stroke: #A80036; stroke-width: 1.5;" width="67" x="760" y="841.0859"/><text fill="#000000" font-family="sans-serif" font-size="14" lengthAdjust="spacingAndGlyphs" textLength="53" x="767" y="861.0811">Texture</text><rect fill="#FEFECE" filter="url(#feetfneja081x)" height="30.2969" style="stroke: #A80036; stroke-width: 1.5;" width="175" x="845" y="3"/><rect fill="#FEFECE" filter="url(#feetfneja081x)" height="30.2969" style="stroke: #A80036; stroke-width: 1.5;" width="175" x="841" y="7"/><text fill="#000000" font-family="sans-serif" font-size="14" lengthAdjust="spacingAndGlyphs" textLength="161" x="848" y="26.9951">PolyRenderComponent</text><rect fill="#FEFECE" filter="url(#feetfneja081x)" height="30.2969" style="stroke: #A80036; stroke-width: 1.5;" width="175" x="845" y="841.0859"/><rect fill="#FEFECE" filter="url(#feetfneja081x)" height="30.2969" style="stroke: #A80036; stroke-width: 1.5;" width="175" x="841" y="845.0859"/><text fill="#000000" font-family="sans-serif" font-size="14" lengthAdjust="spacingAndGlyphs" textLength="161" x="848" y="865.0811">PolyRenderComponent</text><rect fill="#FEFECE" filter="url(#feetfneja081x)" height="30.2969" style="stroke: #A80036; stroke-width: 1.5;" width="52" x="1038" y="3"/><rect fill="#FEFECE" filter="url(#feetfneja081x)" height="30.2969" style="stroke: #A80036; stroke-width: 1.5;" width="52" x="1034" y="7"/><text fill="#000000" font-family="sans-serif" font-size="14" lengthAdjust="spacingAndGlyphs" textLength="38" x="1041" y="26.9951">Entity</text><rect fill="#FEFECE" filter="url(#feetfneja081x)" height="30.2969" style="stroke: #A80036; stroke-width: 1.5;" width="52" x="1038" y="841.0859"/><rect fill="#FEFECE" filter="url(#feetfneja081x)" height="30.2969" style="stroke: #A80036; stroke-width: 1.5;" width="52" x="1034" y="845.0859"/><text fill="#000000" font-family="sans-serif" font-size="14" lengthAdjust="spacingAndGlyphs" textLength="38" x="1041" y="865.0811">Entity</text><rect fill="#FFFFFF" filter="url(#feetfneja081x)" height="759.6563" style="stroke: #A80036; stroke-width: 1.0;" width="10" x="136" y="73.4297"/><rect fill="#FFFFFF" filter="url(#feetfneja081x)" height="721.5234" style="stroke: #A80036; stroke-width: 1.0;" width="10" x="286" y="111.5625"/><rect fill="#FFFFFF" filter="url(#feetfneja081x)" height="707.5234" style="stroke: #A80036; stroke-width: 1.0;" width="10" x="435" y="125.5625"/><rect fill="#FFFFFF" filter="url(#feetfneja081x)" height="664.3906" style="stroke: #A80036; stroke-width: 1.0;" width="10" x="560" y="168.6953"/><rect fill="#FFFFFF" filter="url(#feetfneja081x)" height="605.2578" style="stroke: #A80036; stroke-width: 1.0;" width="10" x="641.5" y="211.8281"/><rect fill="#FFFFFF" filter="url(#feetfneja081x)" height="577.2578" style="stroke: #A80036; stroke-width: 1.0;" width="10" x="715" y="225.8281"/><rect fill="#FFFFFF" filter="url(#feetfneja081x)" height="549.2578" style="stroke: #A80036; stroke-width: 1.0;" width="10" x="790.5" y="239.8281"/><rect fill="#FFFFFF" filter="url(#feetfneja081x)" height="579.2578" style="stroke: #A80036; stroke-width: 1.0;" width="10" x="927.5" y="253.8281"/><rect fill="#FFFFFF" filter="url(#feetfneja081x)" height="536.125" style="stroke: #A80036; stroke-width: 1.0;" width="10" x="1059" y="296.9609"/><polygon fill="#A80036" points="124,69.4297,134,73.4297,124,77.4297,128,73.4297" style="stroke: #A80036; stroke-width: 1.0;"/><line style="stroke: #A80036; stroke-width: 1.0;" x1="46" x2="130" y1="73.4297" y2="73.4297"/><text fill="#000000" font-family="sans-serif" font-size="13" lengthAdjust="spacingAndGlyphs" textLength="40" x="53" y="68.3638">Main()</text><path d="M84,88.4297 L283,88.4297 L283,95.4297 L273,105.4297 L84,105.4297 L84,88.4297 " fill="#EEEEEE" style="stroke: #000000; stroke-width: 1.0;"/><rect fill="none" height="216.5313" style="stroke: #000000; stroke-width: 2.0;" width="1020" x="84" y="88.4297"/><text fill="#000000" font-family="sans-serif" font-size="13" font-weight="bold" lengthAdjust="spacingAndGlyphs" textLength="154" x="99" y="101.4966">PolyEngine.OnLoad()</text><polygon fill="#A80036" points="274,107.5625,284,111.5625,274,115.5625,278,111.5625" style="stroke: #A80036; stroke-width: 1.0;"/><line style="stroke: #A80036; stroke-width: 1.0;" x1="146" x2="280" y1="111.5625" y2="111.5625"/><polygon fill="#A80036" points="423,121.5625,433,125.5625,423,129.5625,427,125.5625" style="stroke: #A80036; stroke-width: 1.0;"/><line style="stroke: #A80036; stroke-width: 1.0;" x1="296" x2="429" y1="125.5625" y2="125.5625"/><polygon fill="#A80036" points="307,150.6953,297,154.6953,307,158.6953,303,154.6953" style="stroke: #A80036; stroke-width: 1.0;"/><line style="stroke: #A80036; stroke-width: 1.0;" x1="301" x2="434" y1="154.6953" y2="154.6953"/><text fill="#000000" font-family="sans-serif" font-size="13" lengthAdjust="spacingAndGlyphs" textLength="108" x="313" y="149.6294">FillComponents()</text><polygon fill="#A80036" points="548,164.6953,558,168.6953,548,172.6953,552,168.6953" style="stroke: #A80036; stroke-width: 1.0;"/><line style="stroke: #A80036; stroke-width: 1.0;" x1="296" x2="554" y1="168.6953" y2="168.6953"/><polygon fill="#A80036" points="307,193.8281,297,197.8281,307,201.8281,303,197.8281" style="stroke: #A80036; stroke-width: 1.0;"/><line style="stroke: #A80036; stroke-width: 1.0;" x1="301" x2="559" y1="197.8281" y2="197.8281"/><text fill="#000000" font-family="sans-serif" font-size="13" lengthAdjust="spacingAndGlyphs" textLength="80" x="313" y="192.7622">FillColliders()</text><polygon fill="#A80036" points="629.5,207.8281,639.5,211.8281,629.5,215.8281,633.5,211.8281" style="stroke: #A80036; stroke-width: 1.0;"/><line style="stroke: #A80036; stroke-width: 1.0;" x1="146" x2="635.5" y1="211.8281" y2="211.8281"/><polygon fill="#A80036" points="703,221.8281,713,225.8281,703,229.8281,707,225.8281" style="stroke: #A80036; stroke-width: 1.0;"/><line style="stroke: #A80036; stroke-width: 1.0;" x1="146" x2="709" y1="225.8281" y2="225.8281"/><polygon fill="#A80036" points="778.5,235.8281,788.5,239.8281,778.5,243.8281,782.5,239.8281" style="stroke: #A80036; stroke-width: 1.0;"/><line style="stroke: #A80036; stroke-width: 1.0;" x1="146" x2="784.5" y1="239.8281" y2="239.8281"/><polygon fill="#A80036" points="915.5,249.8281,925.5,253.8281,915.5,257.8281,919.5,253.8281" style="stroke: #A80036; stroke-width: 1.0;"/><line style="stroke: #A80036; stroke-width: 1.0;" x1="146" x2="921.5" y1="253.8281" y2="253.8281"/><polygon fill="#A80036" points="307,278.9609,297,282.9609,307,286.9609,303,282.9609" style="stroke: #A80036; stroke-width: 1.0;"/><line style="stroke: #A80036; stroke-width: 1.0;" x1="301" x2="926.5" y1="282.9609" y2="282.9609"/><text fill="#000000" font-family="sans-serif" font-size="13" lengthAdjust="spacingAndGlyphs" textLength="36" x="313" y="277.895">insert</text><polygon fill="#A80036" points="1047,292.9609,1057,296.9609,1047,300.9609,1051,296.9609" style="stroke: #A80036; stroke-width: 1.0;"/><line style="stroke: #A80036; stroke-width: 1.0;" x1="296" x2="1053" y1="296.9609" y2="296.9609"/><path d="M74,318.9609 L151,318.9609 L151,325.9609 L141,335.9609 L74,335.9609 L74,318.9609 " fill="#EEEEEE" style="stroke: #000000; stroke-width: 1.0;"/><rect fill="none" height="432.9922" style="stroke: #000000; stroke-width: 2.0;" width="1040" x="74" y="318.9609"/><text fill="#000000" font-family="sans-serif" font-size="13" font-weight="bold" lengthAdjust="spacingAndGlyphs" textLength="32" x="89" y="332.0278">loop</text><text fill="#000000" font-family="sans-serif" font-size="11" font-weight="bold" lengthAdjust="spacingAndGlyphs" textLength="72" x="166" y="331.1714">[MainLoop]</text><path d="M84,343.0938 L203,343.0938 L203,350.0938 L193,360.0938 L84,360.0938 L84,343.0938 " fill="#EEEEEE" style="stroke: #000000; stroke-width: 1.0;"/><rect fill="none" height="162.7969" style="stroke: #000000; stroke-width: 2.0;" width="1020" x="84" y="343.0938"/><text fill="#000000" font-family="sans-serif" font-size="13" font-weight="bold" lengthAdjust="spacingAndGlyphs" textLength="74" x="99" y="356.1606">OnUpdate</text><polygon fill="#A80036" points="274,377.3594,284,381.3594,274,385.3594,278,381.3594" style="stroke: #A80036; stroke-width: 1.0;"/><line style="stroke: #A80036; stroke-width: 1.0;" x1="146" x2="280" y1="381.3594" y2="381.3594"/><text fill="#000000" font-family="sans-serif" font-size="13" lengthAdjust="spacingAndGlyphs" textLength="116" x="153" y="376.2935">OnUpdateFrame()</text><polygon fill="#A80036" points="1047,406.4922,1057,410.4922,1047,414.4922,1051,410.4922" style="stroke: #A80036; stroke-width: 1.0;"/><line style="stroke: #A80036; stroke-width: 1.0;" x1="296" x2="1053" y1="410.4922" y2="410.4922"/><text fill="#000000" font-family="sans-serif" font-size="13" lengthAdjust="spacingAndGlyphs" textLength="52" x="303" y="405.4263">Collide()</text><polygon fill="#A80036" points="581,435.625,571,439.625,581,443.625,577,439.625" style="stroke: #A80036; stroke-width: 1.0;"/><line style="stroke: #A80036; stroke-width: 1.0;" x1="575" x2="1058" y1="439.625" y2="439.625"/><text fill="#000000" font-family="sans-serif" font-size="13" lengthAdjust="spacingAndGlyphs" textLength="52" x="587" y="434.5591">Collide()</text><polygon fill="#A80036" points="1047,464.7578,1057,468.7578,1047,472.7578,1051,468.7578" style="stroke: #A80036; stroke-width: 1.0;"/><line style="stroke: #A80036; stroke-width: 1.0;" x1="296" x2="1053" y1="468.7578" y2="468.7578"/><text fill="#000000" font-family="sans-serif" font-size="13" lengthAdjust="spacingAndGlyphs" textLength="57" x="303" y="463.6919">Update()</text><polygon fill="#A80036" points="456,493.8906,446,497.8906,456,501.8906,452,497.8906" style="stroke: #A80036; stroke-width: 1.0;"/><line style="stroke: #A80036; stroke-width: 1.0;" x1="450" x2="1058" y1="497.8906" y2="497.8906"/><text fill="#000000" font-family="sans-serif" font-size="13" lengthAdjust="spacingAndGlyphs" textLength="57" x="462" y="492.8247">Update()</text><path d="M84,519.8906 L202,519.8906 L202,526.8906 L192,536.8906 L84,536.8906 L84,519.8906 " fill="#EEEEEE" style="stroke: #000000; stroke-width: 1.0;"/><rect fill="none" height="225.0625" style="stroke: #000000; stroke-width: 2.0;" width="1020" x="84" y="519.8906"/><text fill="#000000" font-family="sans-serif" font-size="13" font-weight="bold" lengthAdjust="spacingAndGlyphs" textLength="73" x="99" y="532.9575">OnRender</text><polygon fill="#A80036" points="274,554.1563,284,558.1563,274,562.1563,278,558.1563" style="stroke: #A80036; stroke-width: 1.0;"/><line style="stroke: #A80036; stroke-width: 1.0;" x1="146" x2="280" y1="558.1563" y2="558.1563"/><text fill="#000000" font-family="sans-serif" font-size="13" lengthAdjust="spacingAndGlyphs" textLength="114" x="153" y="553.0903">OnRenderFrame()</text><polygon fill="#A80036" points="1047,583.2891,1057,587.2891,1047,591.2891,1051,587.2891" style="stroke: #A80036; stroke-width: 1.0;"/><line style="stroke: #A80036; stroke-width: 1.0;" x1="296" x2="1053" y1="587.2891" y2="587.2891"/><text fill="#000000" font-family="sans-serif" font-size="13" lengthAdjust="spacingAndGlyphs" textLength="55" x="303" y="582.2231">Render()</text><polygon fill="#A80036" points="662.5,612.4219,652.5,616.4219,662.5,620.4219,658.5,616.4219" style="stroke: #A80036; stroke-width: 1.0;"/><line style="stroke: #A80036; stroke-width: 1.0;" x1="656.5" x2="1058" y1="616.4219" y2="616.4219"/><text fill="#000000" font-family="sans-serif" font-size="13" lengthAdjust="spacingAndGlyphs" textLength="79" x="668.5" y="611.356">SetMatrix4()</text><polygon fill="#A80036" points="948.5,641.5547,938.5,645.5547,948.5,649.5547,944.5,645.5547" style="stroke: #A80036; stroke-width: 1.0;"/><line style="stroke: #A80036; stroke-width: 1.0;" x1="942.5" x2="1058" y1="645.5547" y2="645.5547"/><text fill="#000000" font-family="sans-serif" font-size="13" lengthAdjust="spacingAndGlyphs" textLength="55" x="954.5" y="640.4888">Render()</text><path d="M680,660.5547 L744,660.5547 L744,667.5547 L734,677.5547 L680,677.5547 L680,660.5547 " fill="#EEEEEE" style="stroke: #000000; stroke-width: 1.0;"/><rect fill="none" height="77.3984" style="stroke: #000000; stroke-width: 2.0;" width="354" x="680" y="660.5547"/><text fill="#000000" font-family="sans-serif" font-size="13" font-weight="bold" lengthAdjust="spacingAndGlyphs" textLength="19" x="695" y="673.6216">alt</text><text fill="#000000" font-family="sans-serif" font-size="11" font-weight="bold" lengthAdjust="spacingAndGlyphs" textLength="93" x="759" y="672.7651">[RenderSprite]</text><polygon fill="#A80036" points="811.5,694.8203,801.5,698.8203,811.5,702.8203,807.5,698.8203" style="stroke: #A80036; stroke-width: 1.0;"/><line style="stroke: #A80036; stroke-width: 1.0;" x1="805.5" x2="926.5" y1="698.8203" y2="698.8203"/><text fill="#000000" font-family="sans-serif" font-size="13" lengthAdjust="spacingAndGlyphs" textLength="89" x="817.5" y="693.7544">RenderQuad()</text><line style="stroke: #000000; stroke-width: 1.0; stroke-dasharray: 2.0,2.0;" x1="680" x2="1034" y1="707.8203" y2="707.8203"/><polygon fill="#A80036" points="736,725.9531,726,729.9531,736,733.9531,732,729.9531" style="stroke: #A80036; stroke-width: 1.0;"/><line style="stroke: #A80036; stroke-width: 1.0;" x1="730" x2="926.5" y1="729.9531" y2="729.9531"/><text fill="#000000" font-family="sans-serif" font-size="13" lengthAdjust="spacingAndGlyphs" textLength="93" x="742" y="724.8872">RenderModel()</text><path d="M84,765.9531 L298,765.9531 L298,772.9531 L288,782.9531 L84,782.9531 L84,765.9531 " fill="#EEEEEE" style="stroke: #000000; stroke-width: 1.0;"/><rect fill="none" height="59.1328" style="stroke: #000000; stroke-width: 2.0;" width="757" x="84" y="765.9531"/><text fill="#000000" font-family="sans-serif" font-size="13" font-weight="bold" lengthAdjust="spacingAndGlyphs" textLength="169" x="99" y="779.02">PolyEngine.OnUnload()</text><polygon fill="#A80036" points="783.5,785.0859,793.5,789.0859,783.5,793.0859,787.5,789.0859" style="stroke: #A80036; stroke-width: 1.0;"/><line style="stroke: #A80036; stroke-width: 1.0;" x1="146" x2="789.5" y1="789.0859" y2="789.0859"/><line style="stroke: #A80036; stroke-width: 2.0;" x1="786.5" x2="804.5" y1="780.0859" y2="798.0859"/><line style="stroke: #A80036; stroke-width: 2.0;" x1="786.5" x2="804.5" y1="798.0859" y2="780.0859"/><polygon fill="#A80036" points="708,799.0859,718,803.0859,708,807.0859,712,803.0859" style="stroke: #A80036; stroke-width: 1.0;"/><line style="stroke: #A80036; stroke-width: 1.0;" x1="146" x2="714" y1="803.0859" y2="803.0859"/><line style="stroke: #A80036; stroke-width: 2.0;" x1="711" x2="729" y1="794.0859" y2="812.0859"/><line style="stroke: #A80036; stroke-width: 2.0;" x1="711" x2="729" y1="812.0859" y2="794.0859"/><polygon fill="#A80036" points="634.5,813.0859,644.5,817.0859,634.5,821.0859,638.5,817.0859" style="stroke: #A80036; stroke-width: 1.0;"/><line style="stroke: #A80036; stroke-width: 1.0;" x1="146" x2="640.5" y1="817.0859" y2="817.0859"/><line style="stroke: #A80036; stroke-width: 2.0;" x1="637.5" x2="655.5" y1="808.0859" y2="826.0859"/><line style="stroke: #A80036; stroke-width: 2.0;" x1="637.5" x2="655.5" y1="826.0859" y2="808.0859"/><!--MD5=[25d3591b30ffccdf50593f4e5f8e7cae]
@startuml
Program -> PolyEngine: Main()
activate PolyEngine
group PolyEngine.OnLoad() 
    PolyEngine -> EntityCollection
    activate EntityCollection
    collections UpdateComponent
    EntityCollection -> UpdateComponent
    activate UpdateComponent
    UpdateComponent -> EntityCollection: FillComponents()
    collections ICollider
    EntityCollection -> ICollider
    activate ICollider
    ICollider -> EntityCollection: FillColliders()
    PolyEngine -> Shader
    activate Shader
    PolyEngine -> Model
    activate Model
    PolyEngine -> Texture
    activate Texture
    collections PolyRenderComponent
    PolyEngine -> PolyRenderComponent
    activate PolyRenderComponent
    
    PolyRenderComponent -> EntityCollection: insert
    collections Entity
    EntityCollection -> Entity
    activate Entity
end

loop MainLoop
    group OnUpdate
        PolyEngine -> EntityCollection: OnUpdateFrame()
        EntityCollection -> Entity: Collide()
        Entity -> ICollider: Collide()
        EntityCollection -> Entity: Update()
        Entity -> UpdateComponent: Update()
    end
    
    group OnRender
        PolyEngine -> EntityCollection: OnRenderFrame()
        EntityCollection -> Entity: Render()
        Entity -> Shader: SetMatrix4()
        Entity -> PolyRenderComponent: Render()
        alt RenderSprite
            PolyRenderComponent -> Texture : RenderQuad()
        else
            PolyRenderComponent -> Model : RenderModel()
        end
    end
end

group PolyEngine.OnUnload()
    PolyEngine -> Texture
    destroy Texture
    PolyEngine -> Model
    destroy Model
    PolyEngine -> Shader
    destroy Shader
end
@enduml

PlantUML version 1.2019.11(Sun Sep 22 10:02:15 UTC 2019)
(GPL source distribution)
Java Runtime: Java(TM) SE Runtime Environment
JVM: Java HotSpot(TM) 64-Bit Server VM
Java Version: 1.7.0_25-b15
Operating System: Linux
Default Encoding: UTF-8
Language: en
Country: US
--></g></svg>